name rise34.3697peak60.0498fall86.3158.mot
datacolumns 19
datarows 27
range 21.71991800000000 21.76325100000000
endheader
time	ground_force1_vx	ground_force1_vy	ground_force1_vz	ground_force1_px	ground_force1_py	ground_force1_pz	ground_force2_vx	ground_force2_vy	ground_force2_vz	ground_force2_px	ground_force2_py	ground_force2_pz	ground_torque1_x	ground_torque1_y	ground_torque1_z	ground_torque2_x	ground_torque2_y	ground_torque2_z	
21.71991800000000	61.77209900000000	776.61141499999997	51.87664800000000	0.39545100000000	0.00000000000000	0.08584900000000	0.00000000000000	0.00000000000000	0.00000000000000	0.00000000000000	0.00000000000000	0.00000000000000	0.00000000000000	29.05665300000000	0.00000000000000	0.00000000000000	0.00000000000000	0.00000000000000	
21.72159000000000	61.12453900000000	779.22143900000003	52.04483700000000	0.39420300000000	0.00000000000000	0.08587600000000	0.00000000000000	0.00000000000000	0.00000000000000	0.00000000000000	0.00000000000000	0.00000000000000	0.00000000000000	29.13877100000000	0.00000000000000	0.00000000000000	0.00000000000000	0.00000000000000	
21.72325500000000	60.47560900000000	781.69075999999995	52.21388500000000	0.39295800000000	0.00000000000000	0.08590300000000	0.00000000000000	0.00000000000000	0.00000000000000	0.00000000000000	0.00000000000000	0.00000000000000	0.00000000000000	29.22248300000000	0.00000000000000	0.00000000000000	0.00000000000000	0.00000000000000	
21.72491500000000	59.82565500000000	784.01819200000000	52.38318300000000	0.39171600000000	0.00000000000000	0.08593300000000	0.00000000000000	0.00000000000000	0.00000000000000	0.00000000000000	0.00000000000000	0.00000000000000	0.00000000000000	29.30735800000000	0.00000000000000	0.00000000000000	0.00000000000000	0.00000000000000	
21.72658600000000	59.17497600000000	786.20266200000003	52.55205200000000	0.39047800000000	0.00000000000000	0.08596300000000	0.00000000000000	0.00000000000000	0.00000000000000	0.00000000000000	0.00000000000000	0.00000000000000	0.00000000000000	29.39291500000000	0.00000000000000	0.00000000000000	0.00000000000000	0.00000000000000	
21.72825100000000	58.52382100000000	788.24322800000004	52.71975000000000	0.38924200000000	0.00000000000000	0.08599500000000	0.00000000000000	0.00000000000000	0.00000000000000	0.00000000000000	0.00000000000000	0.00000000000000	0.00000000000000	29.47863000000000	0.00000000000000	0.00000000000000	0.00000000000000	0.00000000000000	
21.72992000000000	57.87239500000000	790.13908100000003	52.88547800000000	0.38801100000000	0.00000000000000	0.08602800000000	0.00000000000000	0.00000000000000	0.00000000000000	0.00000000000000	0.00000000000000	0.00000000000000	0.00000000000000	29.56393900000000	0.00000000000000	0.00000000000000	0.00000000000000	0.00000000000000	
21.73158400000000	57.22085900000000	791.88956199999996	53.04839000000000	0.38678200000000	0.00000000000000	0.08606100000000	0.00000000000000	0.00000000000000	0.00000000000000	0.00000000000000	0.00000000000000	0.00000000000000	0.00000000000000	29.64824700000000	0.00000000000000	0.00000000000000	0.00000000000000	0.00000000000000	
21.73324800000000	56.56933800000000	793.49416499999995	53.20759800000000	0.38555800000000	0.00000000000000	0.08609600000000	0.00000000000000	0.00000000000000	0.00000000000000	0.00000000000000	0.00000000000000	0.00000000000000	0.00000000000000	29.73093000000000	0.00000000000000	0.00000000000000	0.00000000000000	0.00000000000000	
21.73491800000000	55.91791700000000	794.95254799999998	53.36218100000000	0.38433700000000	0.00000000000000	0.08613200000000	0.00000000000000	0.00000000000000	0.00000000000000	0.00000000000000	0.00000000000000	0.00000000000000	0.00000000000000	29.81134300000000	0.00000000000000	0.00000000000000	0.00000000000000	0.00000000000000	
21.73658600000000	55.26665100000000	796.26454000000001	53.51119200000000	0.38311900000000	0.00000000000000	0.08616800000000	0.00000000000000	0.00000000000000	0.00000000000000	0.00000000000000	0.00000000000000	0.00000000000000	0.00000000000000	29.88882600000000	0.00000000000000	0.00000000000000	0.00000000000000	0.00000000000000	
21.73825100000000	54.61556400000000	797.43015300000002	53.65366800000000	0.38190600000000	0.00000000000000	0.08620500000000	0.00000000000000	0.00000000000000	0.00000000000000	0.00000000000000	0.00000000000000	0.00000000000000	0.00000000000000	29.96270700000000	0.00000000000000	0.00000000000000	0.00000000000000	0.00000000000000	
21.73991700000000	53.96465300000000	798.44958099999997	53.78863600000000	0.38069600000000	0.00000000000000	0.08624200000000	0.00000000000000	0.00000000000000	0.00000000000000	0.00000000000000	0.00000000000000	0.00000000000000	0.00000000000000	30.03231100000000	0.00000000000000	0.00000000000000	0.00000000000000	0.00000000000000	
21.74158200000000	53.31389200000000	799.32321400000001	53.91512000000000	0.37948900000000	0.00000000000000	0.08628000000000	0.00000000000000	0.00000000000000	0.00000000000000	0.00000000000000	0.00000000000000	0.00000000000000	0.00000000000000	30.09696300000000	0.00000000000000	0.00000000000000	0.00000000000000	0.00000000000000	
21.74324700000000	52.66323700000000	800.05163700000003	54.03215300000000	0.37828600000000	0.00000000000000	0.08631800000000	0.00000000000000	0.00000000000000	0.00000000000000	0.00000000000000	0.00000000000000	0.00000000000000	0.00000000000000	30.15599700000000	0.00000000000000	0.00000000000000	0.00000000000000	0.00000000000000	
21.74492300000000	52.01262400000000	800.63563899999997	54.13878000000000	0.37708700000000	0.00000000000000	0.08635600000000	0.00000000000000	0.00000000000000	0.00000000000000	0.00000000000000	0.00000000000000	0.00000000000000	0.00000000000000	30.20875600000000	0.00000000000000	0.00000000000000	0.00000000000000	0.00000000000000	
21.74658000000000	51.36197700000000	801.07621600000004	54.23406900000000	0.37589000000000	0.00000000000000	0.08639400000000	0.00000000000000	0.00000000000000	0.00000000000000	0.00000000000000	0.00000000000000	0.00000000000000	0.00000000000000	30.25460100000000	0.00000000000000	0.00000000000000	0.00000000000000	0.00000000000000	
21.74824700000000	50.71120800000000	801.37457300000005	54.31711700000000	0.37469700000000	0.00000000000000	0.08643300000000	0.00000000000000	0.00000000000000	0.00000000000000	0.00000000000000	0.00000000000000	0.00000000000000	0.00000000000000	30.29291700000000	0.00000000000000	0.00000000000000	0.00000000000000	0.00000000000000	
21.74992000000000	50.06022500000000	801.53212599999995	54.38705700000000	0.37350800000000	0.00000000000000	0.08647100000000	0.00000000000000	0.00000000000000	0.00000000000000	0.00000000000000	0.00000000000000	0.00000000000000	0.00000000000000	30.32311200000000	0.00000000000000	0.00000000000000	0.00000000000000	0.00000000000000	
21.75158500000000	49.40892700000000	801.55050700000004	54.44306500000000	0.37232100000000	0.00000000000000	0.08650900000000	0.00000000000000	0.00000000000000	0.00000000000000	0.00000000000000	0.00000000000000	0.00000000000000	0.00000000000000	30.34462900000000	0.00000000000000	0.00000000000000	0.00000000000000	0.00000000000000	
21.75325000000000	48.75721400000000	801.43155899999999	54.48436500000000	0.37113700000000	0.00000000000000	0.08654700000000	0.00000000000000	0.00000000000000	0.00000000000000	0.00000000000000	0.00000000000000	0.00000000000000	0.00000000000000	30.35694600000000	0.00000000000000	0.00000000000000	0.00000000000000	0.00000000000000	
21.75492000000000	48.10498600000000	801.17734199999995	54.51023900000000	0.36995600000000	0.00000000000000	0.08658400000000	0.00000000000000	0.00000000000000	0.00000000000000	0.00000000000000	0.00000000000000	0.00000000000000	0.00000000000000	30.35957700000000	0.00000000000000	0.00000000000000	0.00000000000000	0.00000000000000	
21.75658300000000	47.45214400000000	800.79012699999998	54.52002800000000	0.36877700000000	0.00000000000000	0.08662200000000	0.00000000000000	0.00000000000000	0.00000000000000	0.00000000000000	0.00000000000000	0.00000000000000	0.00000000000000	30.35208200000000	0.00000000000000	0.00000000000000	0.00000000000000	0.00000000000000	
21.75825000000000	46.79859900000000	800.27239499999996	54.51313700000000	0.36760100000000	0.00000000000000	0.08665800000000	0.00000000000000	0.00000000000000	0.00000000000000	0.00000000000000	0.00000000000000	0.00000000000000	0.00000000000000	30.33406700000000	0.00000000000000	0.00000000000000	0.00000000000000	0.00000000000000	
21.75991500000000	46.14426600000000	799.62683800000002	54.48904600000000	0.36642700000000	0.00000000000000	0.08669500000000	0.00000000000000	0.00000000000000	0.00000000000000	0.00000000000000	0.00000000000000	0.00000000000000	0.00000000000000	30.30518600000000	0.00000000000000	0.00000000000000	0.00000000000000	0.00000000000000	
21.76158700000000	45.48907100000000	798.85635100000002	54.44730500000000	0.36525500000000	0.00000000000000	0.08673000000000	0.00000000000000	0.00000000000000	0.00000000000000	0.00000000000000	0.00000000000000	0.00000000000000	0.00000000000000	30.26514500000000	0.00000000000000	0.00000000000000	0.00000000000000	0.00000000000000	
21.76325100000000	44.83295200000000	797.96402899999998	54.38754500000000	0.36408500000000	0.00000000000000	0.08676600000000	0.00000000000000	0.00000000000000	0.00000000000000	0.00000000000000	0.00000000000000	0.00000000000000	0.00000000000000	30.21370100000000	0.00000000000000	0.00000000000000	0.00000000000000	0.00000000000000	
